PathFileType	4	(X/Y/Z)	Patient4_TMGait_0pt4_01_right_27.trc.trc
DataRate	CameraRate	NumFrames	NumMarkers	Units	OrigDataRate	OrigDataStartFrame	OrigNumFrames
76.923076923077	76.923076923077	6	33	mm	76.923076923077	89	       141
Frame#	Time	Sacral			L.Shoulder			Chest			R.Shoulder			Neck			R.ASIS			L.ASIS			R.Thigh.Superior			R.Thigh.Lateral			R.Thigh.Inferior			R.Patella			L.Thigh.Superior			L.Thigh.Lateral			L.Thigh.Inferior			L.Patella			L.Shank.Superior			L.Shank.Lateral			L.Shank.Inferior			R.Shank.Superior			R.Shank.Lateral			R.Shank.Inferior			R.Heel			R.Midfoot.Superior			R.Midfoot.Lateral			R.Toe			L.Heel			L.Midfoot.Lateral			L.Midfoot.Superior			L.Toe			L.Elbow			L.Wrist			R.Elbow			R.Wrist			
		X1	Y1	Z1	X2	Y2	Z2	X3	Y3	Z3	X4	Y4	Z4	X5	Y5	Z5	X6	Y6	Z6	X7	Y7	Z7	X8	Y8	Z8	X9	Y9	Z9	X10	Y10	Z10	X11	Y11	Z11	X12	Y12	Z12	X13	Y13	Z13	X14	Y14	Z14	X15	Y15	Z15	X16	Y16	Z16	X17	Y17	Z17	X18	Y18	Z18	X19	Y19	Z19	X20	Y20	Z20	X21	Y21	Z21	X22	Y22	Z22	X23	Y23	Z23	X24	Y24	Z24	X25	Y25	Z25	X26	Y26	Z26	X27	Y27	Z27	X28	Y28	Z28	X29	Y29	Z29	X30	Y30	Z30	X31	Y31	Z31	X32	Y32	Z32	X33	Y33	Z33	

89	35.964000000000	878.527722204998	994.190784474905	490.647239335432	1029.190192462659	1422.386348338396	286.040277728411	1144.902392902704	1367.273196741098	443.241217705810	1066.947337695763	1444.837288321507	618.373190612551	1019.694348617722	1489.261737185016	439.639538140082	1113.868991141935	935.724085951029	598.076850494479	1090.485782296043	962.470021862049	325.005491002202	1167.047504599121	737.200744937999	565.907350727717	1099.823935860989	620.206306649121	631.712602430339	1180.550256876938	569.480920813172	552.269559082430	1179.003387066179	459.516609777004	569.724060119543	1162.221776035907	761.141342358981	349.634913464518	1088.838395350614	636.769946682074	289.420026024522	1182.597709507630	569.552033145576	351.840756192855	1190.291675102832	500.332663206382	360.279949255293	1169.428343689611	425.011557511102	350.971335466887	1088.749819166461	305.171613863760	297.268563345750	1147.717302168500	197.468928486651	368.426554046209	1104.590483018681	388.307548021594	575.328740420575	987.988901923690	341.240217710925	639.824795039215	974.752245686778	234.988214429260	584.931472036973	773.819150664478	156.704956657039	562.744535474066	948.340505472135	121.525140466220	597.764858491388	842.445193810754	108.386635062709	635.490835747889	1027.614550019274	32.448453982044	623.887782861950	1028.206249104626	37.741661082315	408.844073606957	1101.381399463673	35.674178885178	327.040238160986	1182.532491728843	99.465657321372	353.609927499926	1311.919194844865	52.205259178145	324.800247801580	1001.301439259528	1068.673447374122	176.799161145880	1077.928342696496	818.813826020071	163.022480557430	1091.933363788598	1106.413943834433	758.584749458456	1292.485986253540	954.076058046719	704.476128706684	
90	35.977000000000	877.368934476540	994.555922200235	488.406264749004	1030.622540331486	1422.572834084150	283.784878487412	1144.765545164630	1367.492255500726	442.134533697941	1065.433891203668	1445.439896353177	616.499689918977	1019.944176397754	1489.727573960454	437.243101828110	1112.541019767192	936.356153262985	596.466212675234	1089.797459553548	963.396799450883	323.416367597402	1171.316254319764	741.093138316466	564.123171765496	1108.022418252145	622.460741870548	630.503891510238	1190.732193240722	573.660363701888	551.494479154985	1191.244200275081	462.758964502209	569.269440189800	1160.134938329053	760.616677883748	347.384939585151	1085.591473486516	636.938877208864	287.846644473323	1178.532976366268	569.022210808055	350.511071340359	1185.500868271374	499.935873502223	359.121431284467	1164.660176267164	424.729317372521	349.890596002155	1083.878731552781	304.840246025285	296.602522292319	1142.614630932206	197.304845483241	368.108655266590	1115.519145955296	391.631955911989	574.660069448746	997.368218261424	347.898585789698	638.866973397011	981.586491165615	241.709495311296	584.609947575100	778.911785500015	172.133841745599	561.844928298981	951.321390842755	126.789514102692	597.556722478566	844.366282027648	119.534358652958	634.680906268759	1024.804572259200	31.757801899310	623.623366568989	1022.901276157746	37.675899676268	408.800817808233	1096.033098250809	35.588971311502	326.951700356332	1177.157137329857	99.362989797375	353.488046591827	1306.566947433961	52.196648960705	324.652322338999	1009.588280822067	1068.866560900446	172.764825613186	1091.009788809198	820.545140750105	158.927795134722	1081.198599588212	1106.366126899829	756.747687516634	1275.400493615546	943.706821539121	707.758853259210	
91	35.990000000000	876.238906486088	994.930205203444	486.233108328337	1031.949889121112	1422.885909352450	281.783513201179	1144.537255840283	1367.784990015863	441.243796048411	1063.795426037983	1445.966138822157	614.881458076585	1020.136315037385	1490.242201596627	435.146492839680	1111.196396660472	937.161996105657	594.904973495754	1089.105160009838	964.284897312816	321.878753107499	1175.167831229436	745.209341357601	562.454362269909	1115.684868685527	625.165955941920	629.412352155238	1200.182293401224	578.310805677863	550.746349998909	1202.864695089322	466.621319597145	568.725670749856	1158.087801986176	760.174907966258	345.666753829814	1082.637239912977	637.145065809762	286.467790936626	1174.634522716999	568.532663268498	349.534110188533	1180.857104316456	499.540888608327	358.298131726634	1160.029559923203	424.457372350470	349.069938170157	1079.159708996646	304.566703423248	296.086292050271	1137.588449112047	197.148034856788	367.921317575053	1126.110253295853	395.419689574072	573.990541345208	1006.720005001582	354.567971739273	637.970550432882	988.764739694831	248.449167704731	584.319342133873	784.915751829310	186.645784441112	561.121123040383	955.125726912189	132.224853542094	597.382985913831	847.398428299094	130.235881270775	633.959671541916	1023.231030174040	31.396581783520	623.247782270275	1017.598758940823	37.616666913255	408.753936593437	1090.701337272596	35.526721257581	326.878728313647	1171.808760808136	99.254796572752	353.417046328414	1301.228741083241	52.182397847856	324.534035544889	1017.770818890709	1069.363942722976	168.964745990545	1104.222387488086	822.744895793839	155.173878339579	1070.413855129032	1106.311825514711	754.723147150275	1257.448227312532	933.337771087752	711.499843442799	
92	36.003000000000	875.142626677296	995.341007533325	484.103008864558	1033.167509839130	1423.351713052723	280.032554559856	1144.225505119374	1368.170777162430	440.549453178588	1062.049268583224	1446.432465027936	613.500783202856	1020.272797652854	1490.822172580619	433.343800268645	1109.831577655592	938.157346890254	593.422209751696	1088.461757475609	965.128934486366	320.410144288783	1178.538077223642	749.483315825998	560.887251497696	1122.724532012344	628.265148289462	628.411014326246	1208.779265702517	583.341341992084	549.962197473233	1213.749757318395	471.006901988666	568.081633937249	1156.145693485658	759.811963935329	344.454815514353	1079.954871298344	637.380592272169	285.309193449778	1170.911063416465	568.074989614139	348.894940637972	1176.384090868836	499.153507488417	357.819730506083	1155.557332805472	424.198612598810	348.522527854957	1074.606952257422	304.358628481838	295.723569375598	1132.649602476938	197.001051318005	367.866030612876	1136.252582933793	399.579936027064	573.328733323164	1015.933807648160	361.062664400466	637.151794431252	996.259673221963	254.975752029016	584.085720927517	791.738702491835	199.639639039931	560.647197028233	959.889029921329	137.613146665117	597.287679772110	851.645987283841	140.017324958604	633.392310583762	1023.299446233006	31.465822777628	622.772165721627	1012.307725314005	37.567435924866	408.703325326423	1085.397346447973	35.489188265800	326.822273654513	1166.496270643565	99.150085846971	353.399458970690	1295.914494983787	52.172422515005	324.451304368558	1025.776188645765	1070.189594031521	165.396157544115	1117.537505876918	825.467063060439	151.800100628548	1059.711011664781	1106.270162364594	752.518025866130	1238.645732292005	923.048436900199	715.655994395859	
93	36.016000000000	874.078630233114	995.813342494191	481.993583990069	1034.288369748597	1423.988699271084	278.520594748973	1143.843177054529	1368.661023846539	440.031912234416	1060.212019292902	1446.855451053155	612.333129734594	1020.358981423928	1491.479107905820	431.819183118096	1108.435551981899	939.341708812021	592.053013447611	1087.914755819654	965.927432615298	319.035998026431	1181.394548567108	753.848108014073	559.410253814132	1129.100411669794	631.688496563355	627.484620491931	1216.453181726766	588.644438459580	549.098368540560	1223.822854750276	475.809516043769	567.344501571686	1154.347767967516	759.512153904257	343.701440278408	1077.501837696584	637.639600792001	284.378849149317	1167.344815820488	567.638855157397	348.565997278002	1172.076285875160	498.777271570233	357.670058709929	1151.237128561267	423.955866325701	348.239889301009	1070.209098546451	304.217558078522	295.505559576409	1127.791508125283	196.865527668682	367.934088305041	1145.876793485507	404.006010221388	572.693276288347	1024.939365814642	367.186196168791	636.433479585830	1004.077672300721	261.053505141348	583.935333992225	799.309273881871	210.566188972618	560.470289660931	965.761692932348	142.718622723051	597.314586982335	857.209879652063	148.436539704268	633.036028357513	1025.412873011223	32.018887725782	622.244467585155	1007.030835261507	37.529515361511	408.650325622198	1080.124404639809	35.475310393423	326.782638046267	1161.220298738197	99.055523323557	353.433687048699	1290.626750670973	52.172840938317	324.406934089423	1033.533193266390	1071.356956262803	162.045728951820	1130.926718706701	828.761182787033	148.840776107516	1049.223228405459	1106.261204573830	750.149223612542	1219.039835709308	912.955153329693	720.159162389604	
94	36.029000000000	873.041352943224	996.363984071611	479.887966955686	1035.341561625624	1424.802230604418	277.230171488307	1143.407774724737	1369.255217509373	439.673973865028	1058.300955431874	1447.248006999513	611.350656471231	1020.404231669546	1492.216356289462	430.549551388210	1106.991713228469	940.697502812348	590.831250640173	1087.500318660610	966.680378987067	317.784821779943	1183.732769756186	758.237262562154	558.020169499868	1134.806705310913	635.356679638682	626.633105764195	1223.178397702931	594.102467168844	548.137833153233	1233.039427490817	480.919347399807	566.540448418309	1152.704771765977	759.253147238189	343.347115429461	1075.224788613669	637.917683753839	283.665688102445	1163.900695773178	567.214074383221	348.508942254392	1167.906914491777	498.413519598728	357.808901711389	1147.043001947526	423.731220073166	348.192762680726	1065.936504501556	304.139266209484	295.412286153325	1122.995373340112	196.741797605632	368.107417908177	1154.949300361927	408.581519793453	572.111351766616	1033.702771224148	372.740621706131	635.842559523487	1012.252826476178	266.457401368985	583.891130374027	807.591176215661	218.973025125915	560.599085008500	972.889369269657	147.304422391497	597.507071164410	864.176000151448	155.120898584502	632.931891246905	1029.919316195370	33.040319409539	621.756777718348	1001.766225250624	37.502473634817	408.597002892552	1074.879961082757	35.481816943673	326.759125223085	1155.975476914303	98.975322259142	353.514050718926	1285.362930119008	52.186279949517	324.400463546876	1040.976731610248	1072.863176184355	158.891020108646	1144.359681442767	832.665011425403	146.321166554910	1039.072249974552	1106.300426226840	747.642881328963	1198.717882514608	903.207601760099	724.920188066662	
